<svg width="1000" height="1000" viewBox="0 0 1000 1000" fill="none" xmlns="http://www.w3.org/2000/svg">
<rect width="1000" height="1000" rx="5" fill="#6B5542"/>
<path fill-rule="evenodd" clip-rule="evenodd" d="M686.429 250H737.395C740.738 250 743.944 251.286 746.308 253.575C748.672 255.864 750 258.968 750 262.205V469.691C750 472.928 748.672 476.032 746.308 478.321C743.944 480.61 740.738 481.896 737.395 481.896H686.429C683.086 481.896 679.879 480.61 677.515 478.321C675.152 476.032 673.824 472.928 673.824 469.691V262.205C673.824 258.968 675.152 255.864 677.515 253.575C679.879 251.286 683.086 250 686.429 250ZM647.101 457.73C567.017 456.957 521.429 462.368 498.613 483.971C474.118 507.12 464.034 555.655 464.706 654.15H274.706C273.697 502.482 300.882 413.507 365.966 351.953C432.689 288.893 518.529 272.498 647.101 273.8V457.73ZM489.118 688.283V737.795C489.118 741.032 487.79 744.136 485.426 746.425C483.062 748.714 479.856 750 476.513 750H262.605C259.262 750 256.056 748.714 253.692 746.425C251.328 744.136 250 741.032 250 737.795V688.283C250 685.046 251.328 681.942 253.692 679.653C256.056 677.364 259.262 676.078 262.605 676.078H476.891C480.234 676.078 483.44 677.364 485.804 679.653C488.168 681.942 489.496 685.046 489.496 688.283H489.118Z" fill="white"/>
</svg>
