<svg width="1000" height="1000" viewBox="0 0 1000 1000" fill="none" xmlns="http://www.w3.org/2000/svg">
<rect width="1000" height="1000" rx="5" fill="#6B5542"/>
<path opacity="0.4" fill-rule="evenodd" clip-rule="evenodd" d="M317.766 251.724C312.884 254.199 309.937 259.074 309.937 264.676C309.937 270.279 312.884 275.154 317.766 277.628C320.895 279.215 324.939 279.331 369.169 279.093C415.924 278.843 417.244 278.784 419.869 276.823C424.708 273.208 426.477 269.957 426.477 264.676C426.477 259.396 424.708 256.145 419.869 252.53C417.244 250.569 415.924 250.509 369.169 250.259C324.939 250.022 320.895 250.137 317.766 251.724ZM699.447 251.683C697.579 252.653 695.052 254.939 693.834 256.764C691.905 259.653 691.618 261.327 691.618 269.704V279.325L682.589 279.327C672.118 279.328 668.024 280.856 664.549 286.061C659.905 293.015 662.626 303.124 670.162 306.911C672.663 308.168 675.941 308.619 682.589 308.62L691.618 308.622V318.243C691.618 326.62 691.905 328.293 693.834 331.182C699.775 340.08 711.562 339.873 718.369 330.751C719.962 328.616 720.424 326.218 720.735 318.449L721.123 308.797L730.706 308.465C738.526 308.195 740.785 307.763 742.982 306.12C747.82 302.502 749.588 299.252 749.588 293.973C749.588 288.694 747.82 285.444 742.982 281.827C740.785 280.183 738.526 279.751 730.706 279.481L721.123 279.149L720.735 269.498C720.321 259.185 719.323 256.734 713.877 252.667C710.266 249.969 703.624 249.517 699.447 251.683ZM258.219 310.318C253.338 312.792 250.391 317.667 250.391 323.27C250.391 328.873 253.338 333.748 258.219 336.222C261.35 337.809 265.417 337.924 310.11 337.687C357.359 337.437 358.673 337.378 361.299 335.417C366.138 331.801 367.906 328.55 367.906 323.27C367.906 317.99 366.138 314.739 361.299 311.124C358.673 309.162 357.359 309.103 310.11 308.853C265.417 308.616 261.35 308.731 258.219 310.318ZM610.616 663.793C608.747 664.762 606.221 667.048 605.003 668.874C603.074 671.762 602.787 673.436 602.787 681.813V691.434L593.757 691.436C583.287 691.437 579.193 692.965 575.718 698.17C571.074 705.125 573.795 715.233 581.331 719.02C583.832 720.278 587.11 720.728 593.757 720.729L602.787 720.731V730.352C602.787 738.729 603.074 740.403 605.003 743.292C610.944 752.189 622.731 751.982 629.538 742.861C631.131 740.725 631.593 738.328 631.904 730.558L632.292 720.907L641.875 720.575C649.695 720.304 651.953 719.873 654.151 718.229C658.989 714.612 660.757 711.362 660.757 706.083C660.757 700.803 658.989 697.553 654.151 693.936C651.953 692.293 649.695 691.861 641.875 691.59L632.292 691.258L631.904 681.607C631.49 671.294 630.491 668.843 625.045 664.776C621.435 662.079 614.793 661.626 610.616 663.793Z" fill="white"/>
<path fill-rule="evenodd" clip-rule="evenodd" d="M506.63 273.178C493.967 274.892 476.383 281.732 464.9 289.414C452.89 297.447 401.472 349.444 396.331 358.752C390.308 369.661 387.878 378.658 387.319 392.118L386.832 403.837L427.696 363.255C470.983 320.267 472.682 318.852 485.575 315.063C492.46 313.04 506.156 313.04 513.041 315.063C526.905 319.137 538.841 329.136 545.029 341.856L548.614 349.228L555.443 346.862C565.143 343.502 578.067 343.522 587.751 346.914C617.147 357.208 630.387 387.809 618.083 417.02C617.623 418.113 619.384 419.393 625.01 422.056C649.714 433.745 660.277 463.13 649.218 489.396C648.699 490.631 650.184 491.745 656.08 494.547C665.214 498.886 675.094 508.417 679.159 516.809C686.829 532.644 686.666 549.6 678.695 564.891C676.215 569.646 669.517 576.963 645.047 601.638C628.244 618.582 614.496 632.811 614.496 633.259C614.496 633.706 620.317 633.859 627.43 633.6C638.083 633.211 641.742 632.662 648.174 630.486C663.095 625.439 667.31 622.183 696.814 592.904C725.987 563.953 731.232 557.829 737.884 544.95C752.023 517.575 752.993 483.176 740.409 455.409C732.717 438.439 732.644 438.358 659.007 364.463C583.436 288.626 582.347 287.658 564.175 280.233C550.53 274.657 538.484 272.457 522.583 272.636C515.419 272.716 508.24 272.96 506.63 273.178ZM489.919 344.552C488.246 345.469 453.104 379.737 411.826 420.703C340.199 491.79 336.745 495.063 336.102 492.48C335.731 490.992 334.311 469.56 332.949 444.853L330.471 399.931L327.278 393.62C318.076 375.428 293.641 371.945 280.136 386.9C274.211 393.462 273.05 397.323 271.354 416.127C268.517 447.587 266.63 463.172 258.659 521.024C251.099 575.898 250.939 577.617 250.905 604.52C250.878 625.26 251.182 630.892 252.717 638.212C258.25 664.603 270.11 685.702 291.323 706.886C311.933 727.468 337.038 740.929 366.549 747.223C379.973 750.085 407.102 750.375 420.945 747.804C440.509 744.17 460.293 736.15 477.272 724.973C486.18 719.107 494.851 710.766 569.339 636.39C617.201 588.602 652.269 552.842 653.236 550.837C654.151 548.942 655.071 544.755 655.282 541.532C656.054 529.741 647.407 519.775 635.55 518.792C625.637 517.97 625.57 518.02 590.58 552.8C555.961 587.21 556.07 587.126 547.727 585.56C538.458 583.821 533.749 573.406 538.288 564.686C539.326 562.694 558.26 543.046 580.364 521.024C607.072 494.415 621.167 479.675 622.383 477.079C626.123 469.102 624.068 457.873 617.791 451.984C611.92 446.476 601.769 444.686 594.209 447.824C591.74 448.85 577.166 462.713 548.605 491.206C511.904 527.818 506.17 533.165 502.969 533.753C491.438 535.871 483.008 527.439 485.117 515.897C485.706 512.678 492.081 505.918 537.839 459.989C566.468 431.254 590.532 406.425 591.316 404.813C593.573 400.175 594.044 395.864 592.895 390.375C592.019 386.187 590.918 384.391 586.702 380.265C579.173 372.897 570.769 371.486 561.783 376.08C559.904 377.041 535.744 400.518 508.094 428.251C480.444 455.984 456.191 479.524 454.2 480.562C445.483 485.105 435.072 480.395 433.334 471.121C431.734 462.591 430.81 463.735 475.913 418.485C504.395 389.912 518.253 375.333 519.278 372.862C523.789 361.99 518.505 348.758 507.881 344.318C503.059 342.304 493.802 342.424 489.919 344.552Z" fill="white"/>
</svg>
