<svg width="1000" height="1000" viewBox="0 0 1000 1000" fill="none" xmlns="http://www.w3.org/2000/svg">
<rect width="1000" height="1000" rx="5" fill="#6B5542"/>
<path fill-rule="evenodd" clip-rule="evenodd" d="M347.778 412.036V271.87H398.207V412.097H347.778V412.036ZM567.646 391.452C564.308 388.695 563.087 382.385 564.919 377.362C566.75 372.339 570.942 370.501 574.28 373.257C581.891 379.567 588.932 385.939 595.404 392.738C602.038 399.661 608.062 406.951 613.597 415.099C622.714 428.515 630.326 444.075 636.39 463.373C642.373 482.302 646.85 504.785 649.781 532.291C650.391 537.927 647.827 543.257 644.042 544.176C640.297 545.095 636.756 541.236 636.146 535.538C633.419 509.992 629.308 489.347 623.895 472.194C618.563 455.347 611.929 441.747 603.951 429.924C599.026 422.634 593.532 416.018 587.549 409.769C581.443 403.398 574.809 397.394 567.646 391.452ZM496.052 488.673C493.814 484.079 494.506 477.585 497.558 474.216C500.611 470.846 504.925 471.888 507.164 476.483C512.74 488.061 517.583 499.946 521.124 512.504C524.787 525.43 527.107 539.153 527.474 553.978C527.596 559.675 524.625 564.515 520.839 564.699C517.054 564.882 513.839 560.41 513.717 554.713C513.391 542.706 511.478 531.434 508.425 520.652C505.292 509.441 501.018 498.904 496.052 488.673ZM504.803 415.344C501.262 413.322 499.431 407.38 500.774 401.989C502.117 396.659 506.065 393.902 509.647 395.924C528.532 406.522 546.278 421.593 559.709 442.911C571.39 461.412 579.734 484.385 582.787 512.933C583.397 518.569 580.833 523.899 577.048 524.818C573.303 525.736 569.762 521.877 569.152 516.18C566.587 492.104 559.546 472.746 549.737 457.185C537.812 438.439 521.898 424.962 504.803 415.344ZM421.691 680.237C428.733 683.423 436.344 686.853 443.263 689.61C449.409 692.061 458.851 686.792 468.783 681.279C481.156 674.417 494.017 667.311 509.443 667.862C521.084 668.291 530.893 676.316 540.783 684.464C547.01 689.61 553.319 694.756 556.819 694.94C560.849 695.124 566.791 689.855 572.733 684.587C582.461 675.949 592.148 667.372 605.661 666.637C620.15 665.902 631.384 673.437 642.536 680.85C648.885 685.077 655.194 689.304 660.485 689.916C665.451 690.529 672.126 684.097 678.597 677.909C687.592 669.21 696.424 660.756 708.065 658.796C721.862 656.529 736.963 666.27 749.783 674.601L750.109 674.846C750.109 694.572 750.109 714.36 750.109 734.086C747.341 732.86 744.492 731.206 741.562 729.43C739.527 728.143 737.41 726.796 735.294 725.448C726.543 719.812 716.205 713.073 712.094 713.747C708.797 714.298 703.588 719.322 698.296 724.406C696.343 726.244 694.389 728.143 692.395 729.981C682.545 738.987 671.881 746.705 657.799 745.051C646.362 743.765 637.041 737.516 627.68 731.206L626.866 730.655C619.865 725.999 612.865 721.466 606.882 721.711C603.219 721.895 597.968 726.367 592.677 731.023L591.456 732.064C580.955 741.437 570.373 750.749 555.598 749.952C543.51 749.278 533.375 741.008 523.363 732.738L522.101 731.696C516.525 727.102 511.193 722.936 508.629 722.814C500.814 722.507 491.779 727.224 482.987 732.125L481.481 732.983C466.137 741.498 451.525 749.585 434.187 742.785C424.866 739.109 417.825 735.923 411.353 732.983L411.15 732.86C394.788 719.751 358.849 720.241 342.975 732.86L342.772 732.983C336.3 735.923 329.259 739.109 319.938 742.785C302.6 749.585 287.947 741.498 272.644 732.983L271.138 732.125C263.893 728.388 256.567 724.529 249.892 723.365V667.985C262.997 668.965 274.272 675.214 285.18 681.279C295.07 686.792 304.553 692.061 310.699 689.61C317.578 686.853 325.229 683.423 332.271 680.237C373.582 661.552 380.339 661.552 421.691 680.237ZM417.011 393.412V298.641C566.832 280.937 668.137 362.782 676.521 531.005C681.853 551.282 681.731 565.863 677.213 575.909L678.516 574.684C687.511 565.985 696.343 557.531 707.983 555.571C721.781 553.304 736.881 563.045 749.702 571.376L750.028 571.621C750.028 591.347 750.028 611.135 750.028 630.861C747.26 629.635 744.411 627.981 741.48 626.205C739.445 624.918 737.329 623.571 735.212 622.223C726.462 616.587 716.124 609.848 712.013 610.522C708.716 611.073 703.506 616.097 698.215 621.181C696.261 623.019 694.308 624.918 692.313 626.756C682.464 635.762 671.8 643.48 657.717 641.826C646.28 640.54 636.96 634.291 627.599 627.981L626.785 627.43C619.784 622.774 612.783 618.241 606.8 618.486C603.137 618.67 597.887 623.142 592.596 627.798L591.375 628.839C580.874 638.212 570.291 647.524 555.517 646.727C543.428 646.053 533.294 637.783 523.281 629.513L522.02 628.471C516.444 623.877 511.112 619.711 508.548 619.589C500.733 619.282 491.697 623.999 482.906 628.9L481.4 629.819C466.056 638.334 451.444 646.421 434.105 639.621C424.785 635.945 417.743 632.76 411.272 629.819L411.068 629.697C394.951 617.812 359.011 618.118 342.894 629.697L342.69 629.819C336.219 632.76 329.178 635.945 319.857 639.621C302.518 646.421 287.866 638.334 272.562 629.819L271.056 628.962C263.893 625.041 256.567 621.181 249.892 620.017V564.637C262.997 565.617 274.272 571.866 285.18 577.931C295.07 583.444 304.553 588.713 310.699 586.262C317.578 583.506 325.229 580.075 332.271 576.89C342.609 572.234 351.848 568.068 360.599 565.434C366.134 563.351 371.547 562.554 377.001 562.616C382.455 562.493 387.828 563.351 393.404 565.434C402.155 568.007 411.394 572.234 421.732 576.89C428.773 580.075 436.384 583.506 443.304 586.262C449.449 588.713 458.892 583.444 468.823 577.931C477.004 573.398 485.47 568.742 494.709 566.23C471.469 505.091 484.249 402.05 417.011 393.412ZM250.339 412.036V271.87H303.699V412.097H250.339V412.036ZM315.99 418.407V262.742C315.99 255.759 319.816 250 324.456 250C329.096 250 332.922 255.759 332.922 262.742V418.407C332.922 425.391 329.096 431.149 324.456 431.149C319.776 431.149 315.99 425.391 315.99 418.407Z" fill="white"/>
</svg>
