<svg width="1000" height="1000" viewBox="0 0 1000 1000" fill="none" xmlns="http://www.w3.org/2000/svg">
<rect width="1000" height="1000" rx="5" fill="#6B5542"/>
<path fill-rule="evenodd" clip-rule="evenodd" d="M625.471 350.464V350.871C552.274 338.658 442.681 341.711 369.89 355.226C334.485 205.178 672.046 226.509 625.471 350.464ZM710.559 692.408C709.599 692.886 708.542 693.187 707.452 693.292C706.361 693.397 705.258 693.304 704.208 693.019L670.965 681.946L658.938 698.229C658.231 699.206 657.174 699.933 655.944 700.289C654.713 700.644 653.385 700.607 652.182 700.183L617.948 690.535L602.904 708.854L562.364 699.532L548.04 716.263L528.265 711.541L511.554 707.47L500.473 720.781C499.781 721.628 498.818 722.262 497.714 722.596C496.61 722.931 495.419 722.951 494.302 722.654L458.267 714.512L447.411 729.778C446.959 730.422 446.352 730.966 445.634 731.368C444.916 731.77 444.107 732.019 443.267 732.098L414.394 736.901V741.542C414.394 742.652 414.151 743.751 413.679 744.776C413.208 745.801 412.517 746.732 411.647 747.515C410.776 748.298 409.743 748.918 408.606 749.339C407.47 749.76 406.253 749.974 405.024 749.969H319.215C318.826 750.01 318.433 750.01 318.044 749.969H295.522C294.098 749.854 292.773 749.262 291.808 748.309C290.844 747.356 290.308 746.111 290.308 744.819C290.308 743.527 290.844 742.282 291.808 741.329C292.773 740.376 294.098 739.784 295.522 739.67H312.504V624.467H295.162C294.415 624.472 293.674 624.343 292.982 624.087C292.291 623.832 291.663 623.454 291.135 622.977C290.607 622.499 290.189 621.932 289.906 621.307C289.623 620.682 289.48 620.013 289.486 619.338C289.486 617.974 290.082 616.665 291.146 615.696C292.209 614.728 293.652 614.179 295.162 614.168H317.458C317.638 614.147 317.819 614.147 317.999 614.168H404.889C406.12 614.166 407.338 614.385 408.475 614.811C409.611 615.237 410.643 615.863 411.511 616.651C412.384 617.424 413.074 618.35 413.538 619.371C414.003 620.393 414.233 621.49 414.213 622.594V626.909H706.055C706.609 626.853 707.17 626.9 707.703 627.049C708.235 627.197 708.729 627.444 709.151 627.772C709.574 628.101 709.917 628.505 710.16 628.959C710.402 629.412 710.538 629.907 710.559 630.41V692.449V692.408ZM339.98 698.677V662.61C340.121 657.663 342.385 652.96 346.294 649.496C350.204 646.031 355.451 644.077 360.926 644.047C363.659 644.058 366.364 644.556 368.883 645.513C371.403 646.47 373.689 647.867 375.61 649.624C379.53 653.168 381.748 657.965 381.782 662.976V699.003C381.69 703.895 379.473 708.559 375.61 711.988C373.675 713.757 371.371 715.161 368.831 716.119C366.291 717.078 363.566 717.571 360.813 717.571C358.061 717.571 355.336 717.078 352.796 716.119C350.256 715.161 347.952 713.757 346.016 711.988C344.087 710.24 342.56 708.163 341.524 705.879C340.488 703.594 339.963 701.146 339.98 698.677ZM349.8 663.017V698.677C349.816 701.338 350.998 703.885 353.088 705.76C355.178 707.623 357.991 708.675 360.926 708.691C362.389 708.697 363.839 708.441 365.192 707.938C366.545 707.435 367.774 706.695 368.809 705.76C370.815 703.934 371.989 701.493 372.097 698.921V663.017C372.083 660.343 370.902 657.783 368.809 655.893C367.753 654.939 366.494 654.187 365.109 653.684C363.723 653.18 362.239 652.934 360.746 652.962C357.868 652.992 355.114 654.025 353.058 655.845C351.002 657.665 349.803 660.132 349.71 662.732V662.976L349.8 663.017ZM323.584 624.467V739.67H403.042V624.467H323.584ZM429.348 512.806C408.853 525.791 387.412 530.636 366.286 534.137L384.574 581.072H404.709C416.931 581.123 428.642 585.508 437.321 593.285L438.042 593.936H618.218L636.551 534.666C617.948 532.956 600.516 531.613 587.003 525.099C580.542 521.22 574.961 516.259 570.562 510.485L569.706 498.029C574.718 494.338 579.252 490.145 583.219 485.532C592.228 475.395 595.651 464.933 599.976 451.663C600.831 448.854 601.687 446.045 602.723 443.236C611.147 442.463 618.579 433.914 623.083 423.249C625.597 417.266 627.232 411.012 627.948 404.645C628.87 399.239 628.024 393.707 625.516 388.729C624.679 387.183 623.405 385.865 621.823 384.907C620.241 383.949 618.407 383.386 616.507 383.274C616.8 377.586 617.937 371.958 619.885 366.543C549.301 355.063 443.357 358.402 373.313 371.224L377.142 387.792C374.135 393.577 373.175 400.059 374.394 406.355C375.286 413.631 377.573 420.711 381.151 427.279C385.655 435.42 392.052 440.835 399.439 440.835C400.114 442.707 401.015 444.905 401.691 446.778C407.727 463.061 412.231 475.029 423.087 486.59C426.171 489.987 429.594 493.121 433.312 495.953L432.456 510.119C431.375 511.055 430.294 511.91 429.168 512.765L429.348 512.806ZM331.827 539.958C299.035 546.674 269.666 560.312 249.892 610.504H253.991C255.827 603.694 259.672 597.462 265.117 592.471H265.342C269.216 588.932 273.823 586.118 278.901 584.19C283.979 582.262 289.428 581.258 294.936 581.235H346.872C341.737 563.935 334.395 548.669 331.827 540.121V539.958ZM750.108 610.504C732.09 562.998 702.857 546.593 672.767 539.713C667.096 557.534 662.584 575.639 659.254 593.936H707.046C716.605 594.014 725.827 597.143 733.081 602.77C736.013 604.995 738.564 607.602 740.649 610.504H750.108ZM558.805 502.995C539.301 514.76 527.274 521.232 502.185 520.662C477.636 520.337 464.843 512.806 445.204 501.57C443.582 575.618 560.697 580.014 558.805 502.995ZM587.994 449.424C589.03 446.127 590.246 442.707 591.642 438.636C591.889 437.765 592.488 437.009 593.323 436.519C594.158 436.028 595.166 435.84 596.147 435.99C601.867 436.927 607.588 429.477 611.507 420.399C613.8 415.035 615.314 409.425 616.011 403.709C616.755 399.585 616.209 395.355 614.435 391.497C612.903 388.892 608.669 390.438 605.426 387.915C589.03 427.116 446.42 444.905 388.088 390.886C385.938 395.356 385.341 400.31 386.376 405.093C387.215 411.544 389.255 417.82 392.412 423.656C396.015 430.047 400.655 434.443 405.34 433.344C406.257 433.17 407.213 433.296 408.037 433.698C408.862 434.101 409.502 434.754 409.844 435.543C411.24 438.962 412.096 441.608 413.132 444.254C443.582 524.57 558.355 530.839 587.994 449.424Z" fill="white"/>
</svg>
