<svg width="1000" height="1000" viewBox="0 0 1000 1000" fill="none" xmlns="http://www.w3.org/2000/svg">
<rect width="1000" height="1000" rx="5" fill="#6B5542"/>
<path fill-rule="evenodd" clip-rule="evenodd" d="M706.876 741.589C706.876 746.206 703.54 750 699.389 750H298.555C294.446 750 291.069 746.251 291.069 741.589V486.234C282.686 489.845 274.915 489.891 268.404 487.468C263.318 485.548 259.046 482.119 255.913 477.639C252.78 473.205 250.786 467.765 250.175 461.823C249.28 452.543 251.762 442.029 258.761 432.2C259.127 431.697 259.534 431.24 259.982 430.829L494.354 252.227C496.999 249.484 501.068 249.209 503.998 251.769L738.777 430.006C739.103 430.28 739.387 430.6 739.672 430.92C749.112 442.349 751.472 455.011 749.194 465.754C748.054 471.011 745.816 475.811 742.724 479.697C739.631 483.628 735.685 486.645 731.168 488.473C724.007 491.399 715.543 491.262 706.917 486.691C706.876 558.004 706.876 670.321 706.876 741.589ZM434.459 416.201H565.52V515.353H434.459V416.201ZM479.014 443.126C482.798 443.126 485.891 446.6 485.891 450.851C485.891 455.103 482.798 458.577 479.014 458.577C475.23 458.577 472.138 455.103 472.138 450.851C472.138 446.554 475.189 443.126 479.014 443.126ZM507.944 476.268L523.407 449.571L538.014 491.079H466.4V485.914L472.138 485.594L477.875 469.822L482.432 481.114H491.018L498.464 459.537L507.944 476.268ZM442.353 426.395H557.708V505.159H442.353V426.395ZM497.935 591.42C498.098 591.466 498.301 591.42 498.464 591.237C507.253 583.512 520.151 586.757 526.051 602.94H525.929C514.292 614.048 505.951 626.117 502.94 639.602H486.094L497.935 591.42ZM556.609 622.277C558.033 635.991 545.501 647.83 534.474 644.082C532.928 647.099 531.748 650.893 530.812 655.465C528.737 666.116 529.347 662.87 530.242 673.201C531.463 686.961 530.161 696.332 522.267 700.355V705.658H362.845V700.355C356.701 697.887 354.056 691.121 354.992 680.013C357.026 659.076 355.765 652.539 351.086 644.631C342.866 644.951 336.926 642.756 333.223 638.094C325.655 628.631 327.974 614.78 337.414 608.151C339.367 606.78 341.646 605.728 344.291 605.088C364.554 600.289 375.744 623.602 381.115 641.979L434.296 643.579C437.918 644.128 440.237 645.956 441.783 648.425C443.207 646.002 445.282 644.173 448.456 643.351C465.017 642.528 476.858 644.996 488.942 644.996H503.021C505.91 644.996 507.416 643.579 507.904 640.973C511.484 628.722 524.18 604.128 537.485 604.586C545.664 604.906 554.575 611.214 556.609 622.277ZM360.444 601.477C365.815 588.037 374.198 584.7 385.631 589.18L397.879 636.494H384.655C378.511 622.414 374.442 608.106 360.444 601.477ZM390.799 589.546C390.962 589.454 391.084 589.317 391.165 589.089C395.682 577.386 408.133 574.095 418.305 579.123C418.305 579.077 418.346 579.078 418.346 579.078L421.113 639.328H403.494L390.799 589.546ZM423.758 577.843C427.053 562.438 458.303 565.592 461.192 576.198C461.599 576.152 457.937 633.065 457.693 639.373H453.054C445.73 639.373 439.26 639.373 432.018 639.373H426.158L423.88 577.843H423.758ZM465.261 580.449C465.342 580.449 465.464 580.403 465.587 580.357C476.898 573.592 492.645 578.529 494.151 587.352L493.378 587.672L480.967 639.328H462.616L465.261 580.449ZM627.735 606.14V690.024H642.79C645.109 690.024 646.981 693.087 646.981 695.692C646.981 698.298 645.109 701.361 642.79 701.361H601.083C598.764 701.361 596.892 698.298 596.892 695.692C596.892 693.087 598.764 690.024 601.083 690.024H616.138V606.14H627.735ZM600.31 542.598H643.441L656.096 598.689H587.737L600.31 542.598ZM688.078 728.835V476.862C688.078 476.314 688.118 475.765 688.2 475.262L500.742 334.968L309.664 475.308C309.826 475.994 309.908 476.725 309.908 477.457V728.835C435.964 728.835 562.021 728.835 688.078 728.835Z" fill="white"/>
</svg>
