<svg width="1000" height="1000" viewBox="0 0 1000 1000" fill="none" xmlns="http://www.w3.org/2000/svg">
<rect width="1000" height="1000" rx="5" fill="#6B5542"/>
<path fill-rule="evenodd" clip-rule="evenodd" d="M497.31 620.258C501.171 641.283 510.064 660.788 523.066 676.753C531.584 687.166 535.803 697.58 535.803 708.039C535.862 713.574 534.884 719.062 532.929 724.161C530.975 729.26 528.087 733.859 524.446 737.672C517.24 745.568 507.492 750 497.33 750C487.168 750 477.419 745.568 470.214 737.672C466.58 733.855 463.7 729.254 461.752 724.155C459.805 719.057 458.833 713.57 458.898 708.039C458.898 697.61 463.13 687.181 471.593 676.753C484.623 660.814 493.507 641.296 497.31 620.258ZM539.94 471.335C543.369 471.32 546.796 471.529 550.202 471.96C565.575 473.882 574.945 481.57 588.371 485.369C604.596 489.838 610.842 471.96 609.423 457.166C608.482 449.643 606.441 442.338 603.379 435.534C600.743 429.466 597.461 423.765 593.604 418.55C567.036 382.213 533.288 391.733 515.522 433.791C514.267 436.81 513.498 440.046 513.25 443.356C511.238 442.868 509.186 442.598 507.126 442.551C504.11 442.561 501.11 443.012 498.202 443.892C498.106 439.415 498.283 434.935 498.729 430.484C500.473 413.544 507.45 403.175 510.898 388.381C514.954 370.503 498.729 363.62 485.263 365.274C478.444 366.29 471.825 368.54 465.671 371.933C460.17 374.842 455.008 378.474 450.298 382.749C417.362 412.114 425.961 449.255 464.252 468.787C467.443 470.33 470.869 471.194 474.352 471.335C473.813 474.066 473.541 476.853 473.54 479.648C473.523 482.171 473.754 484.689 474.23 487.157C469.634 487.463 465.023 487.374 460.439 486.889C445.025 485.235 435.574 477.681 422.067 474.329C405.843 470.217 399.799 488.14 401.462 502.889C402.515 510.382 404.651 517.64 407.79 524.388C410.534 530.455 413.925 536.142 417.89 541.327C444.985 577.083 478.732 567.25 495.728 524.7C496.862 521.868 497.561 518.847 497.796 515.761C500.817 516.715 503.943 517.196 507.085 517.192C509.959 517.179 512.82 516.774 515.603 515.985C515.446 519.86 515.108 523.724 514.589 527.561C512.155 544.411 504.732 554.378 500.839 568.993C496.133 586.871 511.993 594.335 525.5 593.397C532.361 592.703 539.073 590.786 545.375 587.72C550.993 585.092 556.304 581.731 561.195 577.709C595.267 549.908 588.249 512.365 550.77 490.911C547.432 489.074 543.788 488.009 540.062 487.782C540.565 485.167 540.823 482.501 540.833 479.827C540.828 476.968 540.528 474.119 539.94 471.335ZM282.494 406.438C281.787 405.375 281.302 404.154 281.073 402.86C280.844 401.567 280.878 400.234 281.172 398.957C281.465 397.68 282.011 396.49 282.771 395.472C283.531 394.455 284.485 393.635 285.566 393.072C286.646 392.508 287.827 392.215 289.023 392.212C290.218 392.21 291.4 392.499 292.482 393.059C293.565 393.619 294.521 394.435 295.284 395.45C296.047 396.465 296.596 397.653 296.893 398.929L302.166 410.907L307.561 396.292C308.587 394.545 310.134 393.247 311.935 392.622C313.736 391.997 315.678 392.084 317.427 392.868C319.177 393.651 320.623 395.083 321.517 396.915C322.411 398.748 322.697 400.867 322.326 402.907L311.415 432.405L319.77 451.803L337.293 442.864L345.405 413.276C346.295 411.47 347.723 410.056 349.448 409.274C351.173 408.492 353.09 408.388 354.876 408.981C356.662 409.575 358.208 410.828 359.253 412.53C360.299 414.232 360.78 416.279 360.616 418.327L356.56 432.674L367.796 426.819C368.761 426.033 369.872 425.494 371.048 425.239C372.225 424.984 373.439 425.019 374.602 425.343C375.765 425.667 376.848 426.271 377.774 427.112C378.699 427.952 379.444 429.009 379.955 430.205C380.465 431.401 380.729 432.707 380.727 434.028C380.724 435.35 380.456 436.655 379.941 437.848C379.425 439.042 378.677 440.095 377.748 440.931C376.819 441.768 375.734 442.367 374.569 442.685L364.429 448.004L376.395 453.367C377.98 454.498 379.158 456.202 379.725 458.187C380.292 460.171 380.213 462.311 379.502 464.239C378.791 466.166 377.492 467.76 375.829 468.745C374.166 469.73 372.243 470.046 370.392 469.636L344.919 458.194L326.625 467.714L335.103 487.425L362.685 496.721C364.477 497.609 365.915 499.183 366.734 501.151C367.552 503.119 367.695 505.347 367.135 507.422C366.575 509.497 365.35 511.278 363.689 512.434C362.028 513.589 360.042 514.041 358.101 513.705L344.351 509.236L349.502 521.17C350.209 522.232 350.694 523.454 350.923 524.747C351.152 526.04 351.118 527.373 350.824 528.65C350.531 529.927 349.985 531.117 349.225 532.135C348.466 533.152 347.511 533.972 346.43 534.536C345.35 535.099 344.169 535.393 342.974 535.395C341.778 535.397 340.597 535.108 339.514 534.548C338.432 533.988 337.475 533.172 336.712 532.157C335.95 531.142 335.4 529.954 335.103 528.678L330.316 517.549L325.692 529.93C325.465 531.225 324.981 532.449 324.274 533.514C323.567 534.579 322.655 535.458 321.603 536.088C320.551 536.719 319.386 537.085 318.191 537.16C316.995 537.235 315.799 537.018 314.689 536.524C313.579 536.03 312.582 535.271 311.769 534.303C310.957 533.334 310.349 532.178 309.989 530.92C309.63 529.662 309.527 528.331 309.69 527.024C309.852 525.717 310.275 524.465 310.928 523.36L321.028 495.828L312.429 475.223L294.622 484.564L286.388 513.705C286.262 515.014 285.875 516.276 285.255 517.401C284.636 518.526 283.798 519.486 282.803 520.213C281.807 520.94 280.679 521.416 279.497 521.607C278.315 521.798 277.11 521.699 275.967 521.317C274.824 520.935 273.772 520.28 272.885 519.398C271.999 518.516 271.3 517.43 270.838 516.216C270.377 515.002 270.164 513.691 270.216 512.376C270.268 511.062 270.582 509.776 271.137 508.61L274.949 494.978L263.998 500.297C262.165 500.822 260.223 500.624 258.509 499.737C256.795 498.85 255.417 497.331 254.613 495.442C253.808 493.553 253.629 491.413 254.106 489.394C254.583 487.375 255.686 485.603 257.224 484.386L269.109 478.173L256.575 472.72C255.399 472.47 254.288 471.936 253.322 471.157C252.356 470.378 251.558 469.373 250.986 468.214C250.414 467.055 250.082 465.771 250.013 464.454C249.945 463.137 250.142 461.819 250.59 460.596C251.039 459.373 251.727 458.274 252.606 457.378C253.486 456.483 254.534 455.813 255.676 455.417C256.818 455.021 258.026 454.908 259.212 455.087C260.398 455.266 261.534 455.732 262.538 456.451L288.619 468.161L305.371 459.222L296.691 439.065L271.177 430.618C269.486 429.652 268.158 428.062 267.424 426.125C266.691 424.188 266.599 422.029 267.164 420.025C267.73 418.022 268.918 416.301 270.519 415.165C272.12 414.029 274.033 413.55 275.923 413.812L287.605 417.745L282.494 406.438ZM660.206 428.785C662.356 446.35 665.723 459.625 671.442 464.541C671.51 458.659 672.053 452.796 673.064 447.021C676.39 428.204 681.663 427.221 686.774 413.321C689.373 406.355 689.954 398.674 688.437 391.331C706.731 394.951 723.685 426.327 727.944 466.195C732.597 459.331 735.307 451.106 735.732 442.551C743.348 451.603 748.101 463.127 749.28 475.402C752.282 498.867 745.954 514.063 729.242 520.097C730.961 515.781 731.763 511.09 731.587 506.38C731.411 501.671 730.263 497.068 728.228 492.922C726.671 488.867 724.458 485.157 721.698 481.972C720.481 491.626 718.656 498.911 715.533 501.638C715.467 498.397 715.154 495.167 714.6 491.984C712.815 481.704 709.894 481.168 707.096 473.525C705.682 469.699 705.357 465.491 706.163 461.457C696.144 463.424 686.855 480.631 684.503 502.532C682.019 498.748 680.607 494.237 680.447 489.57C676.293 494.501 673.678 500.765 672.983 507.448C672.033 512.794 672.541 518.331 674.443 523.36C668.428 522.654 662.708 520.125 657.918 516.054C653.127 511.983 649.455 506.529 647.307 500.297C639.479 481.436 640.899 467.357 648.281 448.496C651.108 441.165 655.153 434.48 660.206 428.785ZM653.676 624.549C651.71 627.685 650.897 631.526 651.4 635.296C651.903 639.067 653.684 642.488 656.385 644.868C659.086 647.249 662.505 648.413 665.954 648.126C669.403 647.839 672.625 646.122 674.971 643.321C681.108 635.006 686.745 626.257 691.844 617.13C693.732 613.716 694.312 609.615 693.456 605.73C692.601 601.845 690.379 598.494 687.281 596.413C684.183 594.333 680.462 593.694 676.936 594.637C673.41 595.58 670.369 598.028 668.481 601.442C664 609.429 659.055 617.088 653.676 624.37V624.549ZM594.861 677.691C591.634 679.564 589.214 682.773 588.134 686.612C587.053 690.451 587.401 694.605 589.101 698.161C590.801 701.718 593.713 704.384 597.197 705.574C600.681 706.765 604.451 706.381 607.679 704.508C616.306 699.506 624.613 693.862 632.543 687.613C635.001 685.541 636.75 682.613 637.506 679.305C638.262 675.998 637.98 672.506 636.706 669.398C635.432 666.29 633.241 663.748 630.489 662.186C627.737 660.624 624.587 660.135 621.551 660.797C619.744 661.268 618.036 662.118 616.521 663.299C609.627 668.774 602.388 673.703 594.861 678.049V677.691ZM379.883 650.472C377.129 647.87 373.55 646.58 369.933 646.886C366.316 647.192 362.957 649.069 360.596 652.103C358.235 655.138 357.064 659.082 357.342 663.067C357.619 667.053 359.322 670.754 362.076 673.356C369.499 680.326 377.301 686.789 385.44 692.709C388.194 694.54 391.444 695.246 394.622 694.703C397.8 694.161 400.704 692.405 402.826 689.742C404.948 687.079 406.153 683.678 406.23 680.136C406.307 676.593 405.251 673.133 403.247 670.361C402.429 669.302 401.472 668.383 400.407 667.635C393.316 662.471 386.541 656.797 380.126 650.651L379.883 650.472ZM307.683 588.748C307.683 589.642 307.683 590.581 307.683 591.564C307.796 593.595 308.264 595.584 309.062 597.419C313.329 607.098 318.166 616.46 323.543 625.443C325.57 628.756 328.71 631.046 332.27 631.809C335.83 632.571 339.519 631.744 342.526 629.51C345.532 627.276 347.61 623.817 348.303 619.894C348.995 615.971 348.244 611.906 346.217 608.593C342.032 601.722 338.239 594.572 334.859 587.184C328.856 588.675 322.72 589.424 316.566 589.419C313.598 589.421 310.633 589.242 307.683 588.882V588.748ZM364.51 348.334C366.957 345.371 368.236 341.457 368.065 337.455C367.894 333.453 366.287 329.689 363.597 326.992C360.908 324.296 357.357 322.887 353.724 323.075C350.092 323.264 346.677 325.035 344.229 327.998C338.209 335.222 332.601 342.849 327.437 350.837C337.084 352.23 346.434 355.483 355.059 360.447C358.061 356.29 361.143 352.267 364.429 348.334H364.51ZM426.002 299.17C428.941 297.69 431.31 295.11 432.687 291.889C434.064 288.667 434.361 285.012 433.525 281.572C432.688 278.132 430.773 275.13 428.119 273.099C425.464 271.068 422.242 270.138 419.025 270.476C417.477 270.626 415.966 271.08 414.563 271.817C405.723 276.251 397.159 281.328 388.928 287.013C386.394 288.857 384.49 291.579 383.516 294.748C382.542 297.918 382.553 301.355 383.548 304.516C384.543 307.678 386.466 310.384 389.012 312.208C391.558 314.032 394.582 314.87 397.609 314.59C399.789 314.396 401.893 313.613 403.733 312.31C410.902 307.426 418.339 303.037 426.002 299.17ZM500.271 280.13C503.524 280.037 506.641 278.667 509.061 276.268C511.48 273.869 513.043 270.597 513.468 267.041C513.894 263.485 513.153 259.879 511.381 256.871C509.609 253.863 506.92 251.65 503.8 250.631C502.391 250.174 500.927 249.963 499.459 250.005C489.708 250.208 479.985 251.239 470.377 253.089C467.237 253.717 464.395 255.531 462.339 258.219C460.284 260.908 459.143 264.302 459.114 267.817C459.085 271.332 460.17 274.749 462.181 277.478C464.193 280.206 467.005 282.077 470.133 282.767C471.718 283.057 473.335 283.057 474.92 282.767C483.292 281.137 491.769 280.24 500.271 280.085V280.13ZM575.229 294.7C578.618 296.147 582.389 296.05 585.713 294.432C589.037 292.815 591.642 289.808 592.955 286.074C594.267 282.34 594.18 278.185 592.711 274.522C591.243 270.859 588.515 267.989 585.126 266.543C576.076 262.605 566.792 259.349 557.341 256.799C554.215 255.993 550.932 256.422 548.063 258.01C545.195 259.598 542.923 262.245 541.644 265.489C540.365 268.734 540.159 272.37 541.064 275.764C541.968 279.158 543.925 282.095 546.592 284.063C547.91 285.01 549.364 285.705 550.892 286.119C559.163 288.382 567.292 291.234 575.229 294.656V294.7ZM639.155 340.11C641.492 342.632 644.572 344.15 647.836 344.389C651.1 344.628 654.335 343.573 656.955 341.415C659.575 339.256 661.409 336.136 662.124 332.618C662.839 329.1 662.389 325.417 660.855 322.232C660.182 320.768 659.291 319.439 658.219 318.299C651.251 310.822 643.839 303.864 636.031 297.471C633.109 295.258 629.521 294.383 626.024 295.03C622.527 295.677 619.395 297.796 617.29 300.94C615.184 304.084 614.27 308.006 614.739 311.879C615.209 315.752 617.026 319.272 619.806 321.696C626.648 327.286 633.139 333.378 639.236 339.932L639.155 340.11ZM524.162 460.787C520.755 457.046 516.418 454.501 511.699 453.474C506.981 452.446 502.092 452.983 497.65 455.015C493.208 457.048 489.412 460.485 486.741 464.893C484.071 469.301 482.645 474.482 482.645 479.782C482.645 485.082 484.071 490.263 486.741 494.671C489.412 499.079 493.208 502.516 497.65 504.549C502.092 506.581 506.981 507.118 511.699 506.09C516.418 505.063 520.755 502.518 524.162 498.777C528.682 493.755 531.219 486.968 531.219 479.894C531.219 472.82 528.682 466.033 524.162 461.01V460.787ZM471.837 701.692C471.616 701.049 471.533 700.358 471.594 699.673C471.655 698.988 471.858 698.328 472.189 697.745C472.519 697.161 472.968 696.669 473.499 696.308C474.03 695.946 474.63 695.724 475.252 695.66C475.873 695.596 476.5 695.691 477.083 695.937C477.666 696.184 478.19 696.575 478.613 697.081C479.036 697.587 479.348 698.194 479.523 698.854C479.699 699.514 479.733 700.21 479.625 700.888C479.956 706.278 481.238 711.546 483.397 716.397C485.619 721.022 488.979 724.864 493.091 727.481C493.952 728.082 494.576 729.018 494.839 730.103C495.102 731.188 494.985 732.342 494.511 733.336C493.965 734.296 493.108 734.992 492.114 735.282C491.12 735.573 490.063 735.436 489.157 734.901C483.777 731.495 479.387 726.472 476.501 720.419C473.859 714.57 472.275 708.209 471.837 701.692Z" fill="white"/>
</svg>
