<svg width="1000" height="1000" viewBox="0 0 1000 1000" fill="none" xmlns="http://www.w3.org/2000/svg">
<rect width="1000" height="1000" rx="5" fill="#6B5542"/>
<path fill-rule="evenodd" clip-rule="evenodd" d="M264.524 564.86H330.101V323.161C317.533 317.301 308.88 305.176 308.88 291.219V285.604C308.88 266.032 326.013 250 346.973 250C367.934 250 385.023 266.032 385.023 285.604V291.26C385.023 305.216 376.326 317.342 363.802 323.202V564.901H430.597C437.946 564.901 443.947 570.516 443.947 577.393V655.64C443.947 705.526 400.33 746.379 346.973 746.379C293.66 746.379 250 705.566 250 655.64V578.491C250 571.004 256.523 564.86 264.524 564.86ZM472.647 257.365H489.563V325.277C489.563 327.067 491.172 328.613 493.129 328.613H512.611C514.568 328.613 516.177 327.108 516.177 325.277V257.365H541.877V325.277C541.877 327.067 543.486 328.613 545.443 328.613H564.924C566.881 328.613 568.49 327.108 568.49 325.277V257.365H594.19V325.277C594.19 327.067 595.799 328.613 597.756 328.613C622.5 328.613 592.103 328.613 616.846 328.613C618.803 328.613 620.412 327.108 620.412 325.277V257.365H646.112V325.277C646.112 327.108 647.721 328.613 649.678 328.613H669.16C671.117 328.613 672.726 327.108 672.726 325.277V257.365H698.426V325.277C698.426 327.108 700.035 328.613 701.992 328.613H721.473C723.43 328.613 725.039 327.108 725.039 325.277V257.365H740.216C745.608 257.365 750 261.515 750 266.52V372.966C750 386.027 738.52 396.769 724.561 396.769H639.416V722.656C639.416 737.712 626.239 750 610.15 750H606.149C590.059 750 576.883 737.671 576.883 722.656V396.769H488.302C474.343 396.769 462.863 386.068 462.863 372.966V266.52C462.863 261.475 467.255 257.365 472.647 257.365ZM346.973 271.444C356.236 271.444 363.802 278.524 363.802 287.191V289.673C363.802 298.34 356.236 305.42 346.973 305.42C337.711 305.42 330.144 298.34 330.144 289.673V287.191C330.101 278.524 337.711 271.444 346.973 271.444Z" fill="white"/>
</svg>
