<svg width="1000" height="1000" viewBox="0 0 1000 1000" fill="none" xmlns="http://www.w3.org/2000/svg">
<rect width="1000" height="1000" rx="5" fill="#6B5542"/>
<g clip-path="url(#clip0_1668_3909)">
<path fill-rule="evenodd" clip-rule="evenodd" d="M425.456 461.639L395.345 487.753L373.901 467.719C371.053 455.559 361.287 444.268 344.604 434.019L300.212 406.34C266.764 385.437 250 359.67 250 328.865C250 312.478 254.313 298.581 262.899 287.29C271.484 275.999 281.982 270.266 294.23 270.266C311.727 270.266 327.108 278.662 340.291 295.455C353.434 312.247 359.985 331.876 359.985 354.053C359.985 355.732 359.701 361.291 359.09 370.845L358.887 377.794C358.602 382.252 358.439 385.553 358.439 387.869C358.439 402.403 366.536 414.91 382.772 425.507C385.62 427.475 388.387 429.676 391.073 431.818L425.456 461.639ZM523.56 630.834L689.128 750L750 733.555L567.22 545.078C547.526 524.812 547.363 519.89 523.315 529.792L515.584 532.976L469.971 496.786L438.314 525.565L487.712 575.304L490.845 590.591C496.338 617.516 506.144 618.269 523.56 630.834ZM512.858 367.371L675.903 250L742.106 257.585L560.588 447.684C540.975 468.24 537.354 481.442 513.021 471.424L502.401 467.024L483.276 482.195L430.908 525.449C422.974 532.108 417.44 536.335 414.429 537.898L409.749 540.388C397.502 546.815 391.398 558.454 391.398 575.246V578.083L391.846 585.669L392.497 600.608C393.433 628.054 383.016 654.864 361.084 680.747C339.152 706.862 316.04 719.948 291.87 719.948C279.622 719.948 269.653 715.489 261.759 706.688C253.947 697.829 250 686.769 250 673.162C250 655.501 262.166 635.814 286.499 614.158L354.167 553.995C368.978 540.851 376.383 528.981 376.383 518.5C376.383 517.226 376.221 515.258 376.017 512.362L435.791 459.323L474.528 424.754L478.271 406.398C483.398 381.21 496.745 378.952 512.858 367.371ZM294.23 375.999L304.647 383.295C314.046 389.606 321.696 392.733 327.515 392.733C338.908 392.733 344.564 381.442 344.564 358.686C344.564 342.067 339.315 326.723 328.735 312.768C318.237 298.755 306.641 291.807 293.986 291.807C286.418 291.807 279.907 295.57 274.455 303.04C269.002 310.567 266.276 319.485 266.276 329.792C266.276 346.989 275.594 362.449 294.23 375.999ZM337.606 595.107L288.696 638.419C273.763 651.795 266.276 663.55 266.276 673.393C266.276 681.616 268.514 687.638 273.112 691.633C277.629 695.686 284.505 697.771 293.579 697.771C312.378 697.771 330.811 687.29 348.918 666.445C366.984 645.599 376.017 624.349 376.017 602.635C376.017 587.985 371.501 580.747 362.549 580.747C357.137 580.747 348.836 585.553 337.606 595.107ZM430.664 509.409C437.581 509.409 441.081 504.661 441.081 495.107C441.081 485.553 437.581 480.805 430.664 480.805C423.828 480.805 420.41 485.553 420.41 495.107C420.41 504.661 423.828 509.409 430.664 509.409Z" fill="white"/>
</g>
<defs>
<clipPath id="clip0_1668_3909">
<rect width="500" height="500" fill="white" transform="translate(250 250)"/>
</clipPath>
</defs>
</svg>
