<svg width="1000" height="1000" viewBox="0 0 1000 1000" fill="none" xmlns="http://www.w3.org/2000/svg">
<rect width="1000" height="1000" rx="5" fill="#6B5542"/>
<g clip-path="url(#clip0_1668_3916)">
<path fill-rule="evenodd" clip-rule="evenodd" d="M500 250C638.062 250 750 361.938 750 500C750 638.062 638.062 750 500 750C361.938 750 250 638.062 250 500C250 361.938 361.938 250 500 250ZM500 308.716C605.632 308.716 691.284 394.368 691.284 500C691.284 605.632 605.632 691.284 500 691.284C394.368 691.284 308.716 605.632 308.716 500C308.716 394.368 394.368 308.716 500 308.716Z" fill="white"/>
<path fill-rule="evenodd" clip-rule="evenodd" d="M498.169 583.537C501.343 583.537 504.313 582.804 506.917 581.462L478.068 531.453C477.865 542.033 477.865 552.653 477.865 563.273C477.905 574.422 487.02 583.537 498.169 583.537ZM516.561 464.396C514.486 449.788 511.475 435.425 507.162 421.305H511.19C519.979 421.305 527.181 414.103 527.181 405.314C527.181 396.525 519.979 389.323 511.19 389.323H505.9L498.82 296.631L492.066 389.282H486.776C482.503 389.282 478.638 390.951 475.749 393.717L516.561 464.396ZM527.873 447.55L673.421 418.783C681.763 416.748 688.802 416.585 693.929 418.701C698.609 420.614 701.66 424.479 702.596 430.501C706.34 454.305 684.204 464.966 663.534 470.866C657.593 472.575 651.815 473.836 646.769 474.976C620.28 480.835 600.627 479.98 574.097 473.022C557.861 468.75 543.132 463.42 527.832 461.385V447.55H527.873ZM608.806 305.257C610.84 302.124 615.072 301.229 618.164 303.263C621.297 305.339 622.193 309.53 620.158 312.622C610.474 327.433 603.312 342.651 598.389 357.829C593.14 373.901 590.454 390.015 589.885 405.64C589.763 408.162 588.379 410.319 586.263 411.418L531.209 440.43C527.914 442.179 523.804 440.877 522.054 437.581C520.305 434.285 521.607 430.176 524.902 428.426L576.538 401.245C577.433 385.539 580.322 369.588 585.49 353.638C590.78 337.402 598.43 321.126 608.806 305.257ZM525.798 480.428C527.507 479.045 529.826 478.516 532.064 479.207L604.981 502.157C607.503 502.97 609.212 505.046 609.66 507.487L619.059 561.32L661.011 590.169C664.103 592.285 664.917 596.476 662.801 599.609C660.685 602.702 656.494 603.516 653.361 601.4L609.294 571.126C607.707 570.15 606.527 568.522 606.161 566.488L596.965 513.916L533.61 493.937L525.798 480.428ZM563.233 545.247L587.769 575.155C589.518 577.311 589.763 580.2 588.583 582.52L586.792 586.1L563.233 545.247ZM462.321 514.038C463.46 512.695 465.007 511.882 466.594 511.637L472.86 522.502L472.738 522.624L425.456 580.363L456.34 641.642C458.008 644.979 456.665 649.048 453.329 650.757C453.044 650.92 452.718 651.042 452.433 651.123C436.279 657.023 421.753 664.103 408.936 672.404C396.118 680.705 384.969 690.226 375.529 701.009C373.088 703.817 368.775 704.102 365.967 701.619C363.159 699.178 362.874 694.865 365.316 692.057C375.611 680.298 387.695 669.963 401.53 661.011C413.33 653.32 426.432 646.688 440.796 640.991L411.296 582.479C410.156 580.159 410.36 577.23 412.11 575.114L462.321 514.038ZM457.927 496.582L402.995 513.875L393.799 566.447C393.433 568.441 392.253 570.109 390.666 571.086L346.598 601.359C343.506 603.475 339.274 602.702 337.158 599.569C335.042 596.476 335.816 592.244 338.949 590.129L380.9 561.279L390.3 507.446C390.747 505.046 392.456 502.93 394.979 502.116L450.969 484.497L457.927 496.582ZM424.154 438.07L326.579 418.783C318.237 416.748 311.198 416.585 306.071 418.701C301.392 420.614 298.34 424.479 297.404 430.501C293.661 454.305 315.755 464.925 336.426 470.866C342.367 472.575 348.145 473.836 353.19 474.976C379.68 480.835 399.333 479.98 425.863 473.022C431.315 471.598 436.605 470.052 441.773 468.547L424.154 438.07Z" fill="white"/>
<path fill-rule="evenodd" clip-rule="evenodd" d="M373.82 350.911L431.722 317.464L626.18 654.297L568.278 687.744L373.82 350.911Z" fill="white"/>
</g>
<defs>
<clipPath id="clip0_1668_3916">
<rect width="500" height="500" fill="white" transform="translate(250 250)"/>
</clipPath>
</defs>
</svg>
