<svg width="1000" height="1000" viewBox="0 0 1000 1000" fill="none" xmlns="http://www.w3.org/2000/svg">
<rect width="1000" height="1000" rx="5" fill="#6B5542"/>
<path d="M318.347 598.686C329.912 649.137 364.648 674.323 364.648 699.548C364.648 724.774 353.084 750 318.347 750C283.611 750 272.046 724.774 272.046 699.548C272.046 674.323 306.783 649.097 318.347 598.686ZM676.239 411.649H580.908L604.686 494.894H676.065H676.282V411.649H676.239ZM577.313 399.117H676.239V380.605C676.239 377.553 677.581 374.746 679.704 372.752C679.877 372.589 680.05 372.427 680.267 372.304C682.346 370.555 685.118 369.497 688.106 369.497H738.176C741.424 369.497 744.369 370.758 746.535 372.752C748.657 374.746 750 377.553 750 380.605V528.989C750 532.041 748.657 534.848 746.535 536.842C746.362 537.005 746.188 537.167 745.972 537.289C743.893 539.039 741.121 540.097 738.132 540.097H688.063C684.815 540.097 681.869 538.836 679.704 536.842C677.581 534.848 676.239 532.041 676.239 528.989V507.385H676.022H605.856C599.705 533.343 582.077 551.53 559.555 562.149C543.442 569.758 524.818 573.501 506.15 573.46C487.526 573.46 468.815 569.676 452.443 562.312C428.534 551.53 409.607 533.099 403.067 507.344H399.385C388.384 507.751 380.241 510.192 374.653 514.505C369.413 518.574 366.337 524.595 365.255 532.448V564.021C365.255 567.479 362.266 570.286 358.585 570.286H256.67C252.989 570.327 250 567.52 250 564.061V495.667C250 495.301 250.043 494.975 250.087 494.609C254.981 467.756 265.766 445.826 283.177 429.592C300.502 413.439 324.238 403.104 355.163 399.239C355.639 399.158 356.116 399.076 356.635 399.076H434.295L447.765 355.989C448.631 353.263 451.273 351.514 454.132 351.514H476.395V304.276H421.994C414.025 304.276 406.835 301.225 401.594 296.302C396.353 291.378 393.105 284.584 393.105 277.138C393.105 269.652 396.353 262.898 401.594 257.975C406.835 253.052 414.068 250 421.994 250H583.42C591.389 250 598.579 253.052 603.82 257.975C609.061 262.898 612.309 269.692 612.309 277.138C612.309 284.624 609.061 291.378 603.82 296.302C598.579 301.225 591.346 304.276 583.42 304.276H532.051V351.514H558.645C561.85 351.514 564.536 353.629 565.185 356.477L577.313 399.117ZM518.711 351.514V304.276H489.735V351.514H518.711ZM404.453 494.894L430.44 411.649H356.895C329.045 415.148 307.822 424.262 292.576 438.461C277.33 452.661 267.801 472.109 263.34 496.155V557.796H351.958V532.122C351.958 531.756 352.001 531.431 352.044 531.064C353.517 519.916 358.151 511.128 366.208 504.903C374.047 498.8 384.962 495.382 399.168 494.894H399.385V494.853H404.453V494.894ZM415.714 503.235C420.911 525.653 437.283 541.724 458.16 551.123C472.756 557.674 489.475 561.01 506.15 561.051C522.782 561.051 539.328 557.755 553.578 551.042C573.198 541.765 588.401 525.938 593.252 503.235L553.534 364.086H459.156L445.686 407.173L415.93 502.502C415.887 502.706 415.8 502.99 415.714 503.235ZM583.463 262.532H421.994C417.706 262.532 413.851 264.159 410.993 266.844C408.177 269.489 406.402 273.151 406.402 277.179C406.402 281.207 408.177 284.828 410.993 287.513C413.808 290.158 417.706 291.826 421.994 291.826H583.42C587.708 291.826 591.563 290.158 594.421 287.513C597.237 284.869 599.012 281.207 599.012 277.179C599.012 273.151 597.237 269.53 594.421 266.844C591.606 264.159 587.708 262.532 583.463 262.532ZM736.66 381.988H689.579V527.606H736.66V381.988Z" fill="white"/>
</svg>
