<svg width="1000" height="1000" viewBox="0 0 1000 1000" fill="none" xmlns="http://www.w3.org/2000/svg">
<rect width="1000" height="1000" rx="5" fill="#6B5542"/>
<path d="M250.047 653.217C278.972 636.54 303.341 647.435 337.189 662.652C346.017 666.608 355.618 670.93 364.283 674.338C372.013 677.382 383.892 670.808 396.341 663.93C411.882 655.348 428.073 646.461 447.479 647.191C462.124 647.739 474.451 657.782 486.9 667.947C494.711 674.338 502.644 680.79 507.038 681.034C512.082 681.277 519.568 674.704 527.054 668.13C539.258 657.356 551.463 646.583 568.428 645.731C586.653 644.818 600.77 654.191 614.765 663.504C622.739 668.799 630.672 674.095 637.303 674.825C643.568 675.556 651.949 667.521 660.085 659.791C671.395 648.957 682.501 638.366 697.106 635.931C714.478 633.07 733.436 645.305 749.546 655.652L749.953 655.956C749.953 680.608 749.953 705.32 749.953 729.971C746.495 728.45 742.915 726.38 739.213 724.128C736.65 722.546 734.005 720.841 731.32 719.137C720.295 712.076 707.318 703.677 702.151 704.529C698.001 705.198 691.451 711.468 684.779 717.859C682.339 720.172 679.857 722.546 677.375 724.859C665.008 736.119 651.583 745.736 633.886 743.727C619.484 742.084 607.768 734.293 596.01 726.441L594.993 725.772C586.206 719.928 577.378 714.268 569.892 714.633C565.295 714.876 558.705 720.415 552.033 726.258L550.487 727.598C537.265 739.284 524.002 750.971 505.411 749.936C490.236 749.084 477.462 738.736 464.891 728.45L463.304 727.171C456.307 721.45 449.594 716.215 446.38 716.094C436.535 715.728 425.185 721.633 414.16 727.719L412.248 728.754C392.964 739.406 374.576 749.51 352.77 740.988C341.054 736.423 332.185 732.406 324.048 728.754L323.804 728.632C294.309 715.363 275.067 706.842 252 729.424C251.389 730.032 250.738 730.641 250.088 731.31V729.424V653.217H250.047ZM607.686 353.87L665.293 340.784C701.134 332.749 690.353 236.213 644.423 251.674L513.791 283.933C499.634 287.403 475.346 290.081 464.769 304.202C458.707 312.298 456.185 323.558 457.568 337.619C459.521 357.522 470.627 382.478 477.299 400.556L493.45 444.015C505.207 475.606 511.513 478.649 489.748 496.118L341.379 615.175L352.241 619.984L384.828 620.714C388.53 618.888 392.395 616.758 396.341 614.566C411.882 605.984 428.073 597.097 447.479 597.828C462.124 598.376 474.451 608.419 486.9 618.584L492.514 623.088L521.236 623.757C523.148 622.175 525.101 620.471 527.013 618.766C539.218 607.993 551.422 597.219 568.387 596.367C586.613 595.454 600.73 604.828 614.724 614.14C622.698 619.436 630.631 624.731 637.262 625.462C638.768 625.644 640.395 625.279 642.104 624.61L566.516 423.503C560.088 406.399 548.534 384.791 550.202 371.765C550.772 367.383 554.677 365.618 559.437 364.522C575.547 361.053 591.576 357.522 607.686 353.87ZM669.93 398.669C701.541 398.669 727.171 437.016 727.171 484.31C727.171 531.604 701.541 569.95 669.93 569.95C638.32 569.95 612.69 531.604 612.69 484.31C612.731 436.955 638.32 398.669 669.93 398.669Z" fill="white"/>
</svg>
