<svg width="1000" height="1000" viewBox="0 0 1000 1000" fill="none" xmlns="http://www.w3.org/2000/svg">
<rect width="1000" height="1000" rx="5" fill="#6B5542"/>
<path d="M329.944 509.521C329.944 502.116 332.593 495.724 337.899 490.422C343.197 485.12 349.59 482.402 356.996 482.402C364.474 482.402 370.863 485.12 376.161 490.422C381.463 495.724 384.116 502.116 384.116 509.521C384.116 516.927 381.463 523.319 376.161 528.617C370.863 533.919 364.474 536.572 356.996 536.572C349.586 536.572 343.197 533.919 337.899 528.617C332.598 523.319 329.944 516.931 329.944 509.521ZM500.002 272.863C484.283 272.863 469.037 274.34 454.286 277.294C439.508 280.253 425.258 284.663 411.545 290.519L411.549 290.535C397.592 296.541 384.6 303.551 372.604 311.604C360.576 319.673 349.427 328.84 339.177 339.13L339.132 339.175C328.842 349.429 319.674 360.578 311.605 372.605C303.553 384.601 296.538 397.593 290.536 411.549C290.454 411.732 290.373 411.911 290.284 412.09C284.542 425.636 280.209 439.706 277.295 454.285C274.341 469.039 272.864 484.282 272.864 500C272.864 515.718 274.341 530.961 277.295 545.719C280.253 560.493 284.664 574.742 290.52 588.459L290.536 588.451C296.538 602.407 303.553 615.399 311.605 627.39C319.674 639.422 328.842 650.571 339.132 660.825L339.177 660.866C349.431 671.156 360.58 680.319 372.604 688.396C384.6 696.449 397.592 703.463 411.549 709.465C411.732 709.547 411.911 709.632 412.09 709.722C425.636 715.459 439.707 719.792 454.286 722.706C469.037 725.664 484.283 727.141 500.002 727.141C515.721 727.141 530.963 725.664 545.718 722.706C560.497 719.747 574.746 715.337 588.459 709.481L588.455 709.465C602.412 703.463 615.4 696.449 627.396 688.396C639.424 680.323 650.573 671.16 660.827 660.866L660.872 660.825C671.158 650.571 680.326 639.422 688.399 627.39C696.451 615.399 703.466 602.403 709.472 588.451C709.554 588.268 709.635 588.084 709.725 587.91C715.466 574.368 719.8 560.294 722.713 545.719C725.667 530.961 727.144 515.718 727.144 500C727.144 484.282 725.667 469.039 722.713 454.285C719.755 439.511 715.344 425.258 709.489 411.545L709.472 411.553C703.466 397.597 696.455 384.605 688.399 372.609C680.33 360.582 671.162 349.433 660.872 339.179L660.827 339.134C650.573 328.844 639.424 319.677 627.396 311.608C615.4 303.555 602.408 296.541 588.455 290.539C588.272 290.458 588.089 290.376 587.914 290.287C574.368 284.545 560.297 280.216 545.718 277.299C530.967 274.34 515.725 272.863 500.002 272.863ZM449.819 254.879C466.066 251.628 482.794 250 500.002 250C517.21 250 533.942 251.628 550.186 254.879C566.181 258.081 581.741 262.89 596.857 269.303C597.065 269.38 597.273 269.458 597.476 269.547C612.54 276.029 626.749 283.727 640.083 292.675C653.376 301.594 665.677 311.706 676.969 323.038C688.301 334.329 698.413 346.633 707.332 359.923C716.276 373.252 723.978 387.461 730.46 402.528L730.44 402.537L730.46 402.573C736.991 417.868 741.886 433.619 745.125 449.818C748.376 466.061 750 482.792 750 500C750 517.208 748.376 533.943 745.125 550.186C741.923 566.177 737.113 581.737 730.701 596.853C730.623 597.061 730.546 597.268 730.456 597.472C723.974 612.539 716.276 626.748 707.328 640.077C698.409 653.375 688.297 665.675 676.965 676.966C665.673 688.299 653.368 698.41 640.079 707.325C626.749 716.272 612.536 723.975 597.472 730.453L597.464 730.436L597.423 730.453C582.132 736.983 566.376 741.882 550.182 745.121C533.938 748.372 517.206 750 499.998 750C482.79 750 466.058 748.372 449.814 745.121C433.819 741.919 418.259 737.11 403.143 730.697C402.935 730.616 402.727 730.538 402.524 730.449C387.456 723.971 373.247 716.272 359.917 707.321C346.624 698.406 334.319 688.294 323.031 676.962C311.699 665.671 301.587 653.367 292.668 640.073C283.72 626.748 276.022 612.535 269.54 597.467L269.556 597.459L269.54 597.427C263.005 582.128 258.114 566.377 254.875 550.182C251.628 533.935 250 517.199 250 499.992C250 482.788 251.628 466.057 254.879 449.81C258.081 433.815 262.891 418.255 269.299 403.139C269.377 402.931 269.458 402.724 269.544 402.52C276.026 387.453 283.724 373.244 292.672 359.914C301.591 346.621 311.703 334.317 323.035 323.029C334.327 311.697 346.632 301.586 359.921 292.667C373.251 283.719 387.46 276.021 402.528 269.539L402.536 269.555L402.573 269.539C417.868 263.008 433.62 258.122 449.819 254.879ZM463.731 427.898L529.861 548.534C532.241 550.642 534.21 553.153 535.846 555.948C537.409 558.731 538.634 561.583 539.378 564.509C541.828 573.75 540.668 582.453 536.05 590.534C531.362 598.623 524.429 604.059 515.114 606.716C506.073 609.092 497.443 607.868 489.219 603.115C480.996 598.354 475.69 591.425 473.313 582.38C472.768 580.004 472.43 577.619 472.296 575.243C472.158 572.867 472.227 570.417 472.495 568.037L463.731 427.898ZM670.06 509.521C670.06 516.927 667.411 523.319 662.105 528.617C656.807 533.919 650.418 536.572 643.009 536.572C635.534 536.572 629.145 533.919 623.843 528.617C618.541 523.315 615.892 516.927 615.892 509.521C615.892 502.116 618.541 495.724 623.843 490.422C629.145 485.12 635.534 482.402 643.009 482.402C650.418 482.402 656.811 485.12 662.105 490.422C667.411 495.728 670.06 502.116 670.06 509.521ZM620.649 388.474C626.016 393.776 628.669 400.238 628.669 407.777C628.669 415.321 626.02 421.779 620.649 427.08C615.347 432.11 608.963 434.624 601.35 434.624C593.806 434.624 587.482 432.11 582.449 427.08C577.147 421.779 574.498 415.321 574.498 407.777C574.498 400.234 577.147 393.776 582.449 388.474C587.478 383.376 593.802 380.861 601.35 380.861C608.963 380.861 615.347 383.376 620.649 388.474ZM500.002 338.247C507.684 338.247 514.142 340.896 519.306 346.267C524.473 351.573 527.053 357.888 527.053 365.367C527.053 372.776 524.469 379.165 519.306 384.466C514.138 389.768 507.684 392.417 500.002 392.417C492.596 392.417 486.204 389.768 480.906 384.466C475.604 379.16 472.951 372.772 472.951 365.367C472.951 357.892 475.6 351.573 480.906 346.267C486.208 340.896 492.596 338.247 500.002 338.247ZM379.363 388.474C384.665 383.376 391.053 380.861 398.667 380.861C406.211 380.861 412.534 383.376 417.563 388.474C422.869 393.776 425.514 400.238 425.514 407.777C425.514 415.321 422.869 421.779 417.563 427.08C412.534 432.11 406.211 434.624 398.667 434.624C391.053 434.624 384.669 432.11 379.363 427.08C373.992 421.779 371.343 415.321 371.343 407.777C371.343 400.234 373.992 393.776 379.363 388.474Z" fill="white"/>
</svg>
